<?xml version="1.0" encoding="UTF-8" standalone="yes"?>
<svg width="100%" height="100%" viewBox="0 0 109 109" version="1.1" xmlns="http://www.w3.org/2000/svg" xmlns:xlink="http://www.w3.org/1999/xlink" xml:space="preserve" xmlns:serif="http://www.serif.com/" style="fill-rule:evenodd;clip-rule:evenodd;stroke-linejoin:round;stroke-miterlimit:2;">
  <g transform="matrix(0.0604265,0,0,0.0604265,-19.3185,-32.9617)">
    <g transform="matrix(0.860715,0,0,0.860715,-211.978,69.8136)">
      <path d="M1341.72,1588.57C1341.93,1588.54 1342.14,1588.5 1342.36,1588.46C1346.91,1587.73 1375.54,1584 1414.91,1597.12C1414.91,1597.12 1454.67,1616.36 1465.42,1626.37C1473.94,1634.15 1481.73,1643.88 1488.77,1655.56C1495.81,1667.24 1506.38,1687.9 1520.46,1717.55C1553.45,1785.38 1578.37,1834.95 1595.24,1866.27C1612.1,1897.59 1626.28,1920.29 1637.77,1934.38C1647.04,1945.87 1656.02,1953.84 1664.73,1958.28C1672.48,1962.24 1682.79,1965.02 1695.66,1966.63C1698.47,1966.99 1700.58,1969.38 1700.58,1972.21C1700.59,1972.21 1700.59,1972.22 1700.59,1972.22C1700.59,1976.5 1697.12,1979.97 1692.84,1979.97C1663.12,1979.97 1556.48,1979.97 1524.89,1979.97C1519.49,1979.97 1514.58,1976.81 1512.34,1971.89C1505.23,1956.26 1500.55,1946.03 1498.29,1941.18C1498.24,1941.09 1498.2,1941 1498.16,1940.91C1496.47,1937.06 1459.52,1853.13 1459.31,1852.65C1459.3,1852.65 1459.3,1852.65 1459.3,1852.65C1435.95,1799.65 1412.42,1752.76 1388.7,1711.99C1364.98,1671.59 1343.29,1643.98 1323.65,1629.15C1313.64,1621.74 1302.89,1616.46 1291.4,1613.31C1279.91,1610.16 1265.83,1608.58 1249.15,1608.58L1235.7,1608.58C1228.08,1608.58 1221.91,1614.76 1221.91,1622.38L1221.91,1805.39C1221.91,1843.2 1224.04,1871.27 1228.3,1889.62C1232.56,1907.97 1240.44,1923.07 1251.93,1934.93C1261.94,1945.31 1273.52,1953 1286.68,1958.01C1298.52,1962.51 1313.75,1965.44 1332.36,1966.79C1335.9,1967.05 1338.65,1970 1338.65,1973.56C1338.66,1973.56 1338.66,1973.56 1338.66,1973.56C1338.66,1977.1 1335.79,1979.97 1332.26,1979.97C1288.47,1979.97 1033.59,1979.97 989.8,1979.97C986.264,1979.97 983.398,1977.1 983.398,1973.56C983.398,1973.56 983.398,1973.56 983.398,1973.56C983.398,1970 986.149,1967.04 989.702,1966.78C1008.31,1965.44 1023.53,1962.51 1035.38,1958.01C1048.54,1953 1060.12,1945.31 1070.13,1934.93C1081.99,1923.07 1089.96,1908.06 1094.04,1889.9C1098.11,1871.74 1100.15,1843.57 1100.15,1805.39L1100.15,1395.65C1100.15,1357.47 1098.11,1329.3 1094.04,1311.14C1089.96,1292.98 1081.99,1277.97 1070.13,1266.11C1060.12,1255.36 1048.45,1247.57 1035.1,1242.76C1023.12,1238.43 1008,1235.6 989.738,1234.26C986.167,1234 983.404,1231.02 983.404,1227.44C983.398,1227.44 983.398,1227.44 983.398,1227.44C983.398,1225.75 984.069,1224.13 985.263,1222.94C986.457,1221.74 988.077,1221.07 989.766,1221.07L1251.37,1221.07C1296.22,1221.07 1325.69,1221.26 1339.77,1221.63C1397.22,1224.22 1442.25,1232.01 1474.87,1244.98C1511.57,1259.81 1540.01,1281.95 1560.21,1311.42C1580.41,1340.88 1590.51,1375.08 1590.51,1413.99C1590.51,1414 1590.51,1414.01 1590.51,1414.02C1590.5,1488.67 1534.23,1551.3 1460.01,1559.26C1439.78,1561.14 1418.94,1562.91 1401.09,1564.35C1399.13,1564.5 1397.29,1563.39 1396.5,1561.59C1395.71,1559.79 1396.15,1557.69 1397.58,1556.35C1397.58,1556.33 1397.59,1556.33 1397.59,1556.32C1436.51,1519.26 1455.97,1473.3 1455.97,1418.44C1455.97,1389.16 1450.32,1361.64 1439.01,1335.88C1427.71,1310.12 1412.05,1288.9 1392.03,1272.22C1376.46,1259.62 1357.93,1250.82 1336.44,1245.81C1314.94,1240.81 1284.36,1238.31 1244.7,1238.31L1235.7,1238.31C1228.08,1238.31 1221.91,1244.48 1221.91,1252.1C1221.91,1309.06 1221.91,1525.6 1221.91,1582.56C1221.91,1590.17 1228.08,1596.35 1235.7,1596.35L1243.03,1596.35C1288.99,1596.35 1323.89,1590.76 1341.72,1588.57Z" style="fill-rule:nonzero;"/>
    </g>
    <g transform="matrix(0.860715,0,0,0.860715,-211.978,69.8136)">
      <path d="M1808.22,1539C1774.6,1539 1747.35,1511.75 1747.35,1478.13C1747.35,1439.08 1747.35,1395.65 1747.35,1395.65C1747.35,1357.47 1745.31,1329.3 1741.23,1311.14C1737.15,1292.98 1729.18,1277.97 1717.32,1266.11C1707.32,1255.36 1695.64,1247.57 1682.3,1242.76C1669.99,1238.31 1654.37,1235.44 1635.44,1234.15C1632.71,1233.97 1630.6,1231.7 1630.6,1228.97C1630.59,1228.97 1630.59,1228.97 1630.59,1228.97C1630.59,1224.61 1634.13,1221.07 1638.49,1221.07L1898.57,1221.07C1943.42,1221.07 1972.88,1221.26 1986.97,1221.63C2044.42,1224.22 2089.45,1232.01 2122.07,1244.98C2158.76,1259.81 2187.21,1281.95 2207.41,1311.42C2227.61,1340.88 2237.71,1375.08 2237.71,1413.99C2237.71,1471.81 2215.84,1518.14 2172.1,1552.98C2158.76,1563.36 2144.03,1571.89 2127.9,1578.56C2111.78,1585.23 2090.19,1591.53 2063.13,1597.46C2085.37,1606.73 2101.87,1616.36 2112.62,1626.37C2121.14,1634.15 2128.92,1643.88 2135.97,1655.56C2143.01,1667.24 2153.57,1687.9 2167.66,1717.55C2200.64,1785.38 2225.57,1834.95 2242.43,1866.27C2259.3,1897.59 2273.47,1920.29 2284.96,1934.38C2294.23,1945.87 2303.22,1953.84 2311.93,1958.28C2319.8,1962.3 2330.33,1965.11 2343.51,1966.71C2345.95,1967.01 2347.78,1969.08 2347.78,1971.53C2347.79,1971.53 2347.79,1971.54 2347.79,1971.54C2347.79,1976.19 2344.01,1979.97 2339.36,1979.97C2308.51,1979.97 2201.96,1979.97 2171.44,1979.97C2166.43,1979.97 2161.88,1977.04 2159.8,1972.48C2152.54,1956.51 2147.76,1946.08 2145.48,1941.17C2145.44,1941.09 2145.4,1941.01 2145.36,1940.92C2143.73,1937.21 2106.7,1853.12 2106.5,1852.65C2106.5,1852.65 2106.5,1852.65 2106.5,1852.65C2083.15,1799.65 2059.61,1752.76 2035.89,1711.99C2012.17,1671.59 1990.49,1643.98 1970.84,1629.15C1960.84,1621.74 1950.09,1616.46 1938.6,1613.31C1927.11,1610.16 1913.02,1608.58 1896.34,1608.58L1881.89,1608.58C1878.5,1608.58 1875.25,1609.93 1872.85,1612.33C1870.45,1614.72 1869.1,1617.98 1869.1,1621.37L1869.1,1805.39C1869.1,1843.2 1871.23,1871.27 1875.5,1889.62C1879.76,1907.97 1887.63,1923.07 1899.12,1934.93C1909.13,1945.31 1920.71,1953 1933.87,1958.01C1946.03,1962.63 1961.74,1965.59 1981.01,1966.89C1983.73,1967.07 1985.85,1969.34 1985.85,1972.07C1985.85,1972.07 1985.85,1972.07 1985.85,1972.08C1985.85,1974.17 1985.02,1976.17 1983.54,1977.65C1982.06,1979.13 1980.06,1979.97 1977.96,1979.97C1930.72,1979.97 1685.73,1979.97 1638.48,1979.97C1636.39,1979.97 1634.38,1979.13 1632.9,1977.65C1631.42,1976.17 1630.59,1974.17 1630.59,1972.08C1630.59,1972.07 1630.59,1972.07 1630.59,1972.07C1630.59,1969.34 1632.71,1967.07 1635.44,1966.89C1654.71,1965.59 1670.42,1962.63 1682.58,1958.01C1695.73,1953 1707.32,1945.31 1717.32,1934.93C1729.18,1923.07 1737.15,1908.06 1741.23,1889.9C1745.31,1871.74 1747.35,1843.57 1747.35,1805.39C1747.35,1805.39 1747.35,1771.42 1747.35,1730.86C1747.35,1656.57 1807.57,1596.35 1881.86,1596.35L1890.23,1596.35C1936.19,1596.35 1969.08,1593.76 1988.91,1588.57C2008.74,1583.38 2027.37,1572.63 2044.79,1556.32C2083.7,1519.26 2103.16,1473.3 2103.16,1418.44C2103.16,1389.16 2097.51,1361.64 2086.21,1335.88C2074.9,1310.12 2059.24,1288.9 2039.23,1272.22C2023.66,1259.62 2005.13,1250.82 1983.63,1245.81C1962.13,1240.81 1931.56,1238.31 1891.9,1238.31L1881.89,1238.31C1874.83,1238.31 1869.1,1244.03 1869.1,1251.09C1869.1,1251.09 1869.1,1393.64 1869.1,1478.13C1869.1,1511.75 1841.85,1539 1808.23,1539C1808.23,1539 1808.22,1539 1808.22,1539Z" style="fill-rule:nonzero;"/>
    </g>
  </g>
</svg>